<?xml version="1.0" encoding="utf-8"?>
<!-- Generator: Adobe Illustrator 23.0.2, SVG Export Plug-In . SVG Version: 6.00 Build 0)  -->
<svg version="1.1" id="Layer_1" xmlns="http://www.w3.org/2000/svg" xmlns:xlink="http://www.w3.org/1999/xlink" x="0px" y="0px"
	 viewBox="0 0 560 288" style="enable-background:new 0 0 560 288;" xml:space="preserve">
<style type="text/css">
	.st0{fill:#FFFFFF;stroke:#006F7F;stroke-miterlimit:10;}
	.st1{fill:none;stroke:#006F7F;stroke-miterlimit:10;}
	.st2{fill:#004E59;}
	.st3{fill:#003840;}
	.st4{fill:#B3B3B3;}
	.st5{fill:#808080;}
	.st6{fill:#D8D8D8;}
	.st7{fill:#005E6B;}
</style>
<path class="st0" d="M194.4,121.3"/>
<line class="st1" x1="234" y1="136.7" x2="315.8" y2="132.2"/>
<g>
	<g>
		<g>
			<polygon class="st2" points="204.5,156.1 192.9,142.7 226,139.6 237.6,153 			"/>
		</g>
		<g>
			<polygon class="st3" points="237.6,153 226,139.6 224.8,95.8 236.4,109.2 			"/>
		</g>
		<g>
			<polygon class="st4" points="203.3,112.2 191.7,98.8 224.8,95.8 236.4,109.2 			"/>
		</g>
		<g>
			<polygon class="st5" points="204.5,156.1 192.9,142.7 191.7,98.8 203.3,112.2 			"/>
		</g>
		<g>
			<polygon class="st6" points="236.4,109.2 237.6,153 204.5,156.1 203.3,112.2 			"/>
		</g>
		<g>
			<polygon class="st2" points="202.8,111.3 191.2,97.9 225.8,94.8 237.3,108.1 			"/>
		</g>
		<g>
			<path class="st7" d="M237.3,108.1l1.2,45.8l-0.5,0.1l-34.5,3.2l-1.2-45.8l0.5-0.1L237.3,108.1z M204.5,156.1l33.1-3l-1.2-43.8
				l-33.1,3L204.5,156.1"/>
		</g>
		<g>
			<polygon class="st3" points="203.5,157.1 192,143.7 190.7,98 202.3,111.4 			"/>
		</g>
		<g>
			<polygon class="st2" points="202.3,111.4 190.7,98 191.2,97.9 202.8,111.3 			"/>
		</g>
	</g>
</g>
<path class="st0" d="M273.7,72.3"/>
<g>
	<g>
		<g>
			<polygon class="st2" points="329.1,146.8 317.5,133.4 350.6,130.4 362.1,143.8 			"/>
		</g>
		<g>
			<polygon class="st3" points="362.1,143.8 350.6,130.4 349.4,86.5 361,99.9 			"/>
		</g>
		<g>
			<polygon class="st4" points="327.9,103 316.3,89.6 349.4,86.5 361,99.9 			"/>
		</g>
		<g>
			<polygon class="st5" points="329.1,146.8 317.5,133.4 316.3,89.6 327.9,103 			"/>
		</g>
		<g>
			<polygon class="st6" points="361,99.9 362.1,143.8 329.1,146.8 327.9,103 			"/>
		</g>
		<g>
			<polygon class="st2" points="327.4,102 315.8,88.7 350.3,85.5 361.9,98.9 			"/>
		</g>
		<g>
			<path class="st7" d="M361.9,98.9l1.2,45.8l-0.5,0.1l-34.5,3.2l-1.2-45.8l0.5-0.1L361.9,98.9z M329.1,146.8l33.1-3L361,99.9
				l-33.1,3L329.1,146.8"/>
		</g>
		<g>
			<polygon class="st3" points="328.1,147.8 316.6,134.5 315.3,88.7 326.9,102.1 			"/>
		</g>
		<g>
			<polygon class="st2" points="326.9,102.1 315.3,88.7 315.8,88.7 327.4,102 			"/>
		</g>
	</g>
</g>
</svg>
