<?xml version="1.0" encoding="utf-8"?>
<!-- Generator: Adobe Illustrator 23.0.2, SVG Export Plug-In . SVG Version: 6.00 Build 0)  -->
<svg version="1.1" id="Layer_1" xmlns="http://www.w3.org/2000/svg" xmlns:xlink="http://www.w3.org/1999/xlink" x="0px" y="0px"
	 viewBox="0 0 560 288" style="enable-background:new 0 0 560 288;" xml:space="preserve">
<style type="text/css">
	.st0{fill:#FFFFFF;stroke:#006F7F;stroke-miterlimit:10;}
	.st1{enable-background:new    ;}
	.st2{fill:#057A53;}
	.st3{fill:#07A973;}
	.st4{fill:#09D18E;}
	.st5{fill:#16607D;}
	.st6{fill:#1F85AC;}
	.st7{fill:#26A4D5;}
</style>
<path class="st0" d="M194.4,130.4"/>
<path class="st0" d="M273.7,80.1"/>
<g>
	<g>
		<g class="st1">
			<g>
				<polygon class="st2" points="360.6,160.5 337.8,148.1 337.9,113.3 360.7,125.7 				"/>
			</g>
			<g>
				<polygon class="st3" points="257,175 234.2,162.6 337.8,148.1 360.6,160.5 				"/>
			</g>
			<g>
				<polygon class="st2" points="256.1,176.1 233.3,163.7 233.4,127.1 256.2,139.5 				"/>
			</g>
			<g>
				<polygon class="st3" points="256.2,139.5 233.4,127.1 338.8,112.3 361.6,124.7 				"/>
			</g>
			<g>
				<path class="st4" d="M256.2,139.5l105.4-14.8l-0.1,36.6l-105.4,14.8L256.2,139.5z M360.6,160.5l0.1-34.7l-103.6,14.6l-0.1,34.7
					L360.6,160.5"/>
			</g>
		</g>
	</g>
</g>
<g>
	<g>
		<g class="st1">
			<g>
				<polygon class="st5" points="345,103.5 322.2,91.1 322.2,78.5 345,90.9 				"/>
			</g>
			<g>
				<polygon class="st6" points="247.9,117.2 225.1,104.8 322.2,91.1 345,103.5 				"/>
			</g>
			<g>
				<polygon class="st5" points="247,118.3 224.2,105.9 224.3,91.3 247.1,103.7 				"/>
			</g>
			<g>
				<polygon class="st6" points="247.1,103.7 224.3,91.3 323.1,77.4 345.9,89.8 				"/>
			</g>
			<g>
				<path class="st7" d="M247.1,103.7l98.8-13.9v14.6L247,118.3L247.1,103.7z M345,103.5V90.8l-97.1,13.6v12.7L345,103.5"/>
			</g>
		</g>
	</g>
</g>
</svg>
