<?xml version="1.0" encoding="utf-8"?>
<!-- Generator: Adobe Illustrator 23.0.2, SVG Export Plug-In . SVG Version: 6.00 Build 0)  -->
<svg version="1.1" id="Layer_1" xmlns="http://www.w3.org/2000/svg" xmlns:xlink="http://www.w3.org/1999/xlink" x="0px" y="0px"
	 viewBox="0 0 560 288" style="enable-background:new 0 0 560 288;" xml:space="preserve">
<style type="text/css">
	.st0{fill:#FFFFFF;stroke:#006F7F;stroke-miterlimit:10;}
	.st1{enable-background:new    ;}
	.st2{fill:#A72C41;}
	.st3{fill:#6C1D2A;}
	.st4{fill:#BA3148;}
	.st5{fill:#892435;}
	.st6{fill:#8E2537;}
	.st7{fill:#741F2D;}
</style>
<path class="st0" d="M194.6,149.2"/>
<path class="st0" d="M276.2,79.9"/>
<g>
	<g>
		<g class="st1">
			<g>
				<polygon class="st2" points="266.3,87 276.3,81.2 276.2,129 266.2,134.8 				"/>
			</g>
			<g>
				<polygon class="st3" points="255.3,93.4 256.8,99.1 256.6,140.4 255.2,141.2 				"/>
			</g>
			<g>
				<polygon class="st4" points="266.2,134.8 276.2,129 336,163.5 326,169.3 				"/>
			</g>
			<g>
				<polygon class="st2" points="256.8,99.1 270.6,91.1 270.4,132.4 256.6,140.4 				"/>
			</g>
			<g>
				<polygon class="st5" points="254.5,141.6 250.2,144 250.4,88.1 254.6,92.2 				"/>
			</g>
			<g>
				<polygon class="st6" points="315.7,176.9 317.1,182.7 250.2,144 254.5,141.6 				"/>
			</g>
			<g>
				<polygon class="st2" points="245.3,99.2 255.3,93.4 255.2,141.2 245.2,147 				"/>
			</g>
			<g>
				<polygon class="st4" points="256.6,140.4 270.4,132.4 324.6,163.6 310.8,171.6 				"/>
			</g>
			<g>
				<polygon class="st3" points="255.2,141.2 256.6,140.4 310.8,171.6 315,175.7 				"/>
			</g>
			<g>
				<polygon class="st4" points="245.2,147 255.2,141.2 315,175.7 305,181.5 				"/>
			</g>
			<g>
				<polygon class="st2" points="326.8,121.1 336.8,115.3 336.7,164.7 326.7,170.6 				"/>
			</g>
			<g>
				<polygon class="st4" points="265.6,85.8 275.6,80 336.8,115.3 326.8,121.1 				"/>
			</g>
			<g>
				<polygon class="st5" points="315,175.7 310.8,171.6 310.9,130.4 315.1,127.9 				"/>
			</g>
			<g>
				<polygon class="st6" points="315.1,127.9 310.9,130.4 256.8,99.1 255.3,93.4 				"/>
			</g>
			<g>
				<polygon class="st2" points="317.3,126.7 331.1,118.7 330.9,174.6 317.1,182.7 				"/>
			</g>
			<g>
				<polygon class="st4" points="250.4,88.1 264.2,80.1 331.1,118.7 317.3,126.7 				"/>
			</g>
			<g>
				<polygon class="st3" points="315.8,127.5 317.3,126.7 317.1,182.7 315.7,176.9 				"/>
			</g>
			<g>
				<polygon class="st3" points="254.6,92.2 250.4,88.1 317.3,126.7 315.8,127.5 				"/>
			</g>
			<g>
				<polygon class="st4" points="244.6,98 254.6,92.2 315.8,127.5 305.8,133.3 				"/>
			</g>
			<g>
				<path class="st7" d="M244.6,98l61.2,35.3l-0.1,49.4l-61.2-35.3L244.6,98z M305,181.5l0.1-47.8l-59.8-34.5l-0.1,47.8L305,181.5"
					/>
			</g>
			<g>
				<polygon class="st2" points="305.8,133.3 315.8,127.5 315.7,176.9 305.7,182.8 				"/>
			</g>
		</g>
	</g>
</g>
<g>
	<g>
		<g class="st1">
			<g>
				<polygon class="st2" points="231.2,107.2 241.2,101.4 241.1,149.2 231.1,155 				"/>
			</g>
			<g>
				<polygon class="st3" points="220.2,113.6 221.6,119.4 221.5,160.6 220.1,161.4 				"/>
			</g>
			<g>
				<polygon class="st4" points="231.1,155 241.1,149.2 300.9,183.7 290.9,189.6 				"/>
			</g>
			<g>
				<polygon class="st2" points="221.6,119.4 235.4,111.3 235.3,152.6 221.5,160.6 				"/>
			</g>
			<g>
				<polygon class="st5" points="219.3,161.8 215.1,164.3 215.2,108.3 219.5,112.4 				"/>
			</g>
			<g>
				<polygon class="st6" points="280.6,197.2 282,202.9 215.1,164.3 219.3,161.8 				"/>
			</g>
			<g>
				<polygon class="st2" points="210.2,119.5 220.2,113.6 220.1,161.4 210,167.2 				"/>
			</g>
			<g>
				<polygon class="st4" points="221.5,160.6 235.3,152.6 289.4,183.8 275.6,191.9 				"/>
			</g>
			<g>
				<polygon class="st3" points="220.1,161.4 221.5,160.6 275.6,191.9 279.8,196 				"/>
			</g>
			<g>
				<polygon class="st4" points="210,167.2 220.1,161.4 279.8,196 269.8,201.8 				"/>
			</g>
			<g>
				<polygon class="st2" points="291.7,141.4 301.7,135.6 301.6,185 291.6,190.8 				"/>
			</g>
			<g>
				<polygon class="st4" points="230.5,106 240.5,100.2 301.7,135.6 291.7,141.4 				"/>
			</g>
			<g>
				<polygon class="st5" points="279.8,196 275.6,191.9 275.7,150.6 280,148.2 				"/>
			</g>
			<g>
				<polygon class="st6" points="280,148.2 275.7,150.6 221.6,119.4 220.2,113.6 				"/>
			</g>
			<g>
				<polygon class="st2" points="282.1,147 295.9,138.9 295.8,194.9 282,202.9 				"/>
			</g>
			<g>
				<polygon class="st4" points="215.2,108.3 229,100.3 295.9,138.9 282.1,147 				"/>
			</g>
			<g>
				<polygon class="st3" points="280.7,147.8 282.1,147 282,202.9 280.6,197.2 				"/>
			</g>
			<g>
				<polygon class="st3" points="219.5,112.4 215.2,108.3 282.1,147 280.7,147.8 				"/>
			</g>
			<g>
				<polygon class="st4" points="209.5,118.2 219.5,112.4 280.7,147.8 270.7,153.6 				"/>
			</g>
			<g>
				<path class="st7" d="M209.5,118.2l61.2,35.3l-0.1,49.4l-61.3-35.3L209.5,118.2z M269.8,201.8l0.1-47.8l-59.8-34.5l-0.1,47.8
					L269.8,201.8"/>
			</g>
			<g>
				<polygon class="st2" points="270.7,153.6 280.7,147.8 280.6,197.2 270.6,203 				"/>
			</g>
		</g>
	</g>
</g>
</svg>
